<svg width="22" height="22" viewBox="0 0 22 22" fill="none" xmlns="http://www.w3.org/2000/svg">
<g>
  <path d="M5.70645 4.41009C5.34847 4.05211 4.76807 4.05211 4.41009 4.41009C4.05211 4.76807 4.05211 5.34847 4.41009 5.70645L9.70359 11L4.41014 16.2934C4.05216 16.6514 4.05216 17.2318 4.41014 17.5898C4.76812 17.9478 5.34852 17.9478 5.7065 17.5898L11 12.2963L16.2934 17.5898C16.6514 17.9478 17.2318 17.9478 17.5898 17.5898C17.9478 17.2318 17.9478 16.6514 17.5898 16.2934L12.2963 11L17.5898 5.70645C17.9478 5.34847 17.9478 4.76807 17.5898 4.41009C17.2318 4.05211 16.6514 4.05211 16.2935 4.41009L11 9.70359L5.70645 4.41009Z" fill="current"/>
</g>
</svg>
