<svg width="24" height="24" viewBox="0 0 24 24" fill="none" xmlns="http://www.w3.org/2000/svg">
<g clipPath="url(#clip0_497_1888)">
<path d="M9.51548 10.0625C9.96438 10.9974 10.5763 11.8737 11.3513 12.6487C12.1263 13.4237 13.0026 14.0356 13.9375 14.4845C14.018 14.5231 14.0582 14.5424 14.1091 14.5573C14.2899 14.61 14.5119 14.5721 14.665 14.4625C14.7081 14.4316 14.745 14.3947 14.8187 14.321C15.0442 14.0955 15.157 13.9828 15.2703 13.9091C15.6979 13.6311 16.2491 13.6311 16.6766 13.9091C16.79 13.9828 16.9027 14.0955 17.1282 14.321L17.2539 14.4467C17.5967 14.7895 17.768 14.9609 17.8611 15.1449C18.0463 15.511 18.0463 15.9433 17.8611 16.3093C17.768 16.4934 17.5967 16.6648 17.2539 17.0076L17.1522 17.1092C16.8106 17.4508 16.6398 17.6216 16.4076 17.7521C16.15 17.8968 15.7498 18.0009 15.4542 18C15.1879 17.9992 15.0058 17.9475 14.6418 17.8442C12.6853 17.2889 10.8392 16.2412 9.29902 14.701C7.75883 13.1608 6.71109 11.3147 6.15579 9.35821C6.05246 8.99415 6.0008 8.81213 6.00001 8.54579C5.99913 8.25025 6.1032 7.85005 6.24795 7.59238C6.37839 7.36017 6.54919 7.18937 6.89078 6.84778L6.99245 6.74611C7.33521 6.40334 7.5066 6.23196 7.69066 6.13886C8.05672 5.95371 8.48902 5.95371 8.85508 6.13886C9.03915 6.23196 9.21053 6.40334 9.55329 6.74611L9.67898 6.87179C9.90447 7.09728 10.0172 7.21002 10.0909 7.3234C10.3689 7.75094 10.3689 8.30212 10.0909 8.72967C10.0172 8.84304 9.90447 8.95578 9.67898 9.18127C9.60525 9.255 9.56839 9.29186 9.53753 9.33495C9.42788 9.48809 9.39002 9.71013 9.44273 9.89095C9.45756 9.94183 9.47687 9.98204 9.51548 10.0625Z" stroke="white" strokeWidth="5"/>
<path d="M1 12C1 5.92487 5.92487 0.999999 12 1C18.0751 1 23 5.92487 23 12C23 18.0751 18.0751 23 12 23C5.92487 23 0.999999 18.0751 1 12Z" stroke="white" strokeWidth="5"/>
</g>
<defs>
<clipPath id="clip0_497_1888">
<rect width="24" height="24" fill="white"/>
</clipPath>
</defs>
</svg>