<svg width="19" height="19" viewBox="0 0 19 19" fill="none" xmlns="http://www.w3.org/2000/svg">
<path d="M9.6618 14.915L9.27479 14.6819L8.88778 14.915L4.39195 17.6234L4.38407 17.6281L4.37631 17.6331C4.30383 17.6792 4.25785 17.6842 4.21833 17.6809C4.13809 17.6742 4.08881 17.6516 4.04775 17.6196C3.97927 17.5664 3.92631 17.5016 3.88536 17.416C3.87804 17.4005 3.86304 17.3644 3.88462 17.2705C3.88467 17.2703 3.88471 17.2701 3.88476 17.2699L5.07609 12.1525L5.17884 11.7112L4.83594 11.415L0.861497 7.98125C0.784816 7.91096 0.766441 7.86118 0.759581 7.82931L0.759587 7.82931L0.758937 7.82635C0.743783 7.75731 0.747881 7.69905 0.771307 7.63463C0.804779 7.54258 0.84545 7.49016 0.885341 7.45525C0.889647 7.45148 0.934219 7.41476 1.07574 7.39219L6.30693 6.93379L6.75714 6.89434L6.93262 6.47787L8.96387 1.65704L8.96502 1.65428C8.99648 1.57878 9.02969 1.54973 9.06462 1.52981L9.06568 1.5292C9.15285 1.47929 9.21945 1.46582 9.27479 1.46582C9.3301 1.46582 9.39728 1.47929 9.48545 1.52946C9.5196 1.54911 9.5529 1.57827 9.58457 1.65428L9.58572 1.65704L11.617 6.47787L11.7925 6.89434L12.2427 6.93379L17.4739 7.39219C17.6154 7.41476 17.6599 7.45149 17.6642 7.45525C17.7041 7.49016 17.7448 7.54258 17.7783 7.63463C17.8019 7.69959 17.8062 7.75848 17.7915 7.82764C17.7841 7.8607 17.7646 7.9111 17.6881 7.98126L13.7136 11.415L13.3707 11.7112L13.4735 12.1525L14.6648 17.2699C14.6649 17.27 14.6649 17.2702 14.6649 17.2703C14.6866 17.3646 14.6715 17.4006 14.6642 17.4161C14.6232 17.5016 14.5703 17.5664 14.5018 17.6196C14.4608 17.6516 14.4115 17.6742 14.3313 17.6809C14.2917 17.6842 14.2458 17.6792 14.1733 17.6331L14.1655 17.6281L14.1576 17.6234L9.6618 14.915Z" stroke="#FF5500" stroke-width="1.5"/>
</svg>
