<svg width="24" height="24" viewBox="0 0 24 24" fill="none" xmlns="http://www.w3.org/2000/svg">
<g>
  <path d="M11.9956 5.83317C14.8951 5.83317 17.2456 8.44484 17.2456 11.6665V15.1665L18.1954 16.4329C19.0095 17.5184 18.3148 19.1665 17.0431 19.1665H6.94818C5.67642 19.1665 4.98169 17.5184 5.79585 16.4329L6.74562 15.1665V11.6665C6.74562 8.44484 9.09612 5.83317 11.9956 5.83317ZM11.9956 5.83317V4.1665M15.0003 19.1665C15.0003 19.6042 14.9227 20.0377 14.7719 20.4421C14.6212 20.8465 14.4002 21.214 14.1216 21.5235C13.8431 21.8331 13.5123 22.0786 13.1484 22.2461C12.7844 22.4136 12.3943 22.4998 12.0003 22.4998C11.6063 22.4998 11.2162 22.4136 10.8523 22.2461C10.4883 22.0786 10.1576 21.8331 9.87899 21.5235C9.60042 21.214 9.37944 20.8465 9.22867 20.4421C9.07791 20.0377 9.00031 19.6042 9.00031 19.1665H15.0003Z" stroke="#FF5500" strokeWidth="2" strokeLinecap="round" strokeLinejoin="round"/>
</g>
</svg>
