<svg
width="111"
height="88"
viewBox="0 0 111 88"
fill="none"
xmlns="http://www.w3.org/2000/svg"
>
<path
	class="logo_svg"
	d="M50.6604 16.7404C52.8453 19.2251 53.9378 22.5891 53.9378 26.8325V45.5778H41.774V28.4379C41.774 27.059 41.381 25.9798 40.5883 25.2004C39.7955 24.4144 38.743 24.028 37.4241 24.028C36.1051 24.028 34.9993 24.421 34.2332 25.2004C33.4605 25.9865 33.0808 27.0656 33.0808 28.4379V45.5778H20.917V28.4379C20.917 27.059 20.5239 25.9798 19.7312 25.2004C18.9385 24.4144 17.886 24.028 16.567 24.028C15.2481 24.028 14.1423 24.421 13.3762 25.2004C12.6035 25.9865 12.2238 27.0656 12.2238 28.4379V45.5778H0V13.2431H12.2171V17.5997C13.0964 16.2208 14.3021 15.115 15.821 14.2756C17.3398 13.4363 19.1317 13.0166 21.1834 13.0166C23.4217 13.0166 25.4001 13.5229 27.1255 14.5354C28.8508 15.548 30.223 16.9735 31.2556 18.8054C32.3947 17.1267 33.8402 15.7411 35.6055 14.6487C37.3641 13.5562 39.3093 13.0166 41.4409 13.0166C45.4045 13.0166 48.4754 14.2556 50.6604 16.7404Z"
	fill="white"
/>
<path
	class="logo_svg"
	d="M109.628 10.8382C108.709 10.8382 108.016 11.018 107.536 11.3844C107.057 11.7508 106.73 12.3703 106.544 13.2496H111V23.8547H106.43V76.0072H94.2133V23.848H90.9092V13.243H94.2133C94.2865 9.0396 95.5589 5.78214 98.0369 3.47062C100.515 1.15909 103.992 0 108.469 0C108.982 0 109.828 0.0399687 111 0.113245V10.9514C110.341 10.8782 109.881 10.8382 109.621 10.8382H109.628Z"
	fill="white"
/>
<path
	class="logo_svg"
	d="M50.6604 58.421C52.8453 60.9057 53.9378 64.2698 53.9378 68.5131V87.2585H41.774V70.1185C41.774 68.7396 41.381 67.6605 40.5883 66.8811C39.7955 66.095 38.743 65.7087 37.4241 65.7087C36.1051 65.7087 34.9993 66.1017 34.2332 66.8811C33.4605 67.6671 33.0808 68.7463 33.0808 70.1185V87.2585H20.917V70.1185C20.917 68.7396 20.5239 67.6605 19.7312 66.8811C18.9385 66.095 17.886 65.7087 16.567 65.7087C15.2481 65.7087 14.1423 66.1017 13.3762 66.8811C12.6035 67.6671 12.2238 68.7463 12.2238 70.1185V87.2585H0V54.9238H12.2171V59.2803C13.0964 57.9014 14.3021 56.7956 15.821 55.9563C17.3398 55.1169 19.1317 54.6973 21.1834 54.6973C23.4217 54.6973 25.4001 55.2035 27.1255 56.2161C28.8508 57.2286 30.223 58.6542 31.2556 60.4861C32.3947 58.8074 33.8402 57.4218 35.6055 56.3293C37.3641 55.2368 39.3093 54.6973 41.4409 54.6973C45.4045 54.6973 48.4754 55.9363 50.6604 58.421Z"
	fill="white"
/>
<path
	class="logo_svg"
	d="M64.9961 85.6532C62.498 84.3142 60.5462 82.3957 59.134 79.891C57.7217 77.3863 57.0156 74.4552 57.0156 71.0912C57.0156 67.7272 57.7217 64.7961 59.134 62.2914C60.5462 59.7867 62.498 57.8682 64.9961 56.5293C67.4941 55.1903 70.2986 54.5242 73.4161 54.5242C76.5337 54.5242 79.3382 55.1903 81.8362 56.5293C84.3343 57.8682 86.2861 59.7867 87.6983 62.2914C89.1105 64.7961 89.8166 67.7272 89.8166 71.0912C89.8166 74.4552 89.1105 77.3863 87.6983 79.891C86.2861 82.3957 84.3343 84.3142 81.8362 85.6532C79.3382 86.9921 76.5337 87.6583 73.4161 87.6583C70.2986 87.6583 67.4941 86.9921 64.9961 85.6532ZM76.2806 75.248C77.0533 74.3087 77.433 72.9231 77.433 71.0912C77.433 69.2593 77.0466 67.8737 76.2806 66.9345C75.5078 65.9952 74.5552 65.5289 73.4161 65.5289C72.277 65.5289 71.3244 65.9952 70.5517 66.9345C69.779 67.8737 69.3926 69.2593 69.3926 71.0912C69.3926 72.9231 69.7657 74.3087 70.5184 75.248C71.2711 76.1872 72.2304 76.6535 73.4095 76.6535C74.5885 76.6535 75.5012 76.1872 76.2739 75.248H76.2806Z"
	fill="white"
/>
<path
	class="logo_svg"
	d="M106.544 54.9236H111V65.5286H106.43V87.2583H94.2133V65.5286H90.9092V54.9236H94.2133"
	fill="white"
/>
<path
	class="logo_svg"
	d="M63.197 42.6133C61.2252 41.0878 59.6864 39.196 58.5806 36.9444C57.4215 34.5996 56.8486 32.0216 56.8486 29.2171C56.8486 26.9056 57.3482 24.6674 58.3541 22.509C59.7264 19.5314 61.7781 17.1799 64.5093 15.4546C67.1806 13.7559 70.1649 12.8966 73.4623 12.8633C76.6731 12.83 79.6175 13.6693 82.3021 15.3746C84.9866 17.08 87.025 19.3249 88.4106 22.116C89.5697 24.4275 90.1426 26.879 90.1426 29.4703C90.1426 32.388 89.4232 35.1125 87.9909 37.6572C86.8851 39.6223 85.4663 41.2744 83.7343 42.6266C83.3879 42.8798 79.3444 45.7375 77.5125 42.8798C76.3201 40.4683 75.8205 37.7505 77.1661 35.2058C77.3792 34.8061 77.6457 34.4331 77.9521 34.1066C78.6383 33.3672 79.3777 32.9009 80.3569 32.7677C81.6825 32.5878 84.1539 33.3872 84.3405 31.089C84.3605 30.8425 84.3405 30.5894 84.2672 30.3496L84.2472 30.2896C84.1739 30.0565 84.054 29.8366 83.9008 29.6501C83.7543 29.4703 83.5677 29.3171 83.3746 29.2105C81.9357 28.4377 81.2562 29.8833 80.2503 30.6027C79.8906 30.8625 79.4843 31.1023 79.0513 31.149C78.0987 31.2422 77.3593 30.5428 77.8988 29.5036C78.1053 29.1105 78.3585 28.7375 78.6716 28.4377C79.5842 27.5651 81.083 27.2254 80.7633 25.5134C80.7166 25.2802 80.6367 25.0471 80.5101 24.8472C80.3836 24.6407 80.217 24.4542 80.0305 24.3143L79.9839 24.281C79.7907 24.1478 79.5709 24.0545 79.3444 24.0145C79.1245 23.9746 78.8981 23.9812 78.6782 24.0279C76.6798 24.4942 77.6257 27.0189 76.5466 28.2712C76.0536 28.8441 74.9811 29.6568 74.5082 28.5177C74.3882 28.2246 74.3416 27.8915 74.335 27.5718C74.335 27.1654 74.3749 26.7524 74.4882 26.3594C74.8346 25.1403 75.8138 24.0345 74.7147 22.8288C74.5615 22.6556 74.3683 22.5157 74.1684 22.4224C73.9619 22.3292 73.7421 22.2759 73.5156 22.2692H73.4956C73.2691 22.2692 73.036 22.3292 72.8228 22.4224C72.6163 22.5157 72.4298 22.6623 72.2766 22.8288C71.1774 24.0345 72.1567 25.1403 72.5031 26.3594C72.6163 26.7524 72.6629 27.1654 72.6563 27.5718C72.6563 27.8915 72.603 28.2246 72.4831 28.5177C72.0101 29.6568 70.931 28.8441 70.4447 28.2712C69.3655 27.0122 70.3114 24.4875 68.313 24.0279C68.0932 23.9746 67.8667 23.9679 67.6469 24.0145C67.4204 24.0612 67.2005 24.1478 67.0074 24.281L66.9607 24.3143C66.7742 24.4542 66.6077 24.6407 66.4811 24.8472C66.3612 25.0471 66.2746 25.2802 66.228 25.5134C65.9082 27.232 67.4137 27.5651 68.3197 28.4377C68.6328 28.7375 68.8859 29.1105 69.0924 29.5036C69.632 30.5428 68.8925 31.2356 67.94 31.149C67.507 31.109 67.1006 30.8625 66.7409 30.6027C65.735 29.8766 65.0489 28.4311 63.6167 29.2105C63.4168 29.3171 63.237 29.4703 63.0904 29.6501C62.9372 29.8366 62.8173 30.0565 62.744 30.2896L62.724 30.3496C62.6574 30.5894 62.6308 30.8425 62.6508 31.089C62.8373 33.3805 65.3087 32.5812 66.6343 32.7677C67.6135 32.9009 68.3596 33.3672 69.0391 34.1066C69.3389 34.4331 69.612 34.8061 69.8252 35.2058C71.0842 37.5773 70.7311 40.0953 69.7186 42.3802C68.0066 46.1372 63.3769 42.7466 63.2037 42.62L63.197 42.6133Z"
	fill="black"
/>
</svg>