<svg width="19" height="18" viewBox="0 0 19 18" fill="none" xmlns="http://www.w3.org/2000/svg">
<path d="M9.6618 14.1992L9.27479 13.9661L8.88778 14.1992L4.39195 16.9076L4.38407 16.9123L4.37631 16.9173C4.30383 16.9634 4.25785 16.9684 4.21833 16.9651C4.13809 16.9584 4.08881 16.9358 4.04775 16.9038C3.97927 16.8506 3.92631 16.7857 3.88536 16.7001C3.87804 16.6847 3.86304 16.6486 3.88462 16.5546C3.88467 16.5544 3.88471 16.5543 3.88476 16.5541L5.07609 11.4367L5.17884 10.9954L4.83594 10.6991L0.861497 7.26543C0.784816 7.19514 0.766441 7.14536 0.759581 7.11349L0.759587 7.11349L0.758937 7.11053C0.743783 7.04149 0.747881 6.98323 0.771307 6.91881C0.804779 6.82676 0.84545 6.77434 0.885341 6.73943C0.889647 6.73566 0.934219 6.69894 1.07574 6.67637L6.30693 6.21797L6.75714 6.17852L6.93262 5.76205L8.96387 0.941219L8.96502 0.938462C8.99648 0.862957 9.02969 0.833908 9.06462 0.813988L9.06568 0.813377C9.15285 0.76347 9.21945 0.75 9.27479 0.75C9.3301 0.75 9.39728 0.763465 9.48545 0.813642C9.5196 0.833285 9.5529 0.862451 9.58457 0.938464L9.58572 0.941217L11.617 5.76205L11.7925 6.17852L12.2427 6.21797L17.4739 6.67637C17.6154 6.69894 17.6599 6.73567 17.6642 6.73943C17.7041 6.77434 17.7448 6.82676 17.7783 6.91881C17.8019 6.98377 17.8062 7.04266 17.7915 7.11182C17.7841 7.14488 17.7646 7.19528 17.6881 7.26544L13.7136 10.6991L13.3707 10.9954L13.4735 11.4367L14.6648 16.5541C14.6649 16.5542 14.6649 16.5543 14.6649 16.5545C14.6866 16.6487 14.6715 16.6848 14.6642 16.7002C14.6232 16.7858 14.5703 16.8506 14.5018 16.9038C14.4608 16.9358 14.4115 16.9584 14.3313 16.9651C14.2917 16.9684 14.2458 16.9634 14.1733 16.9173L14.1655 16.9123L14.1576 16.9076L9.6618 14.1992Z" fill="#D9D9D9" stroke="white" stroke-width="1.5"/>
</svg>
