<svg width="65" height="65" view-box="0 0 65 65" fill="none" xmlns="http://www.w3.org/2000/svg">
  <circle cx="32.5" cy="32.5" r="32.5" fill="#D9D9D9"/>
  <g>
  <path d="M19.1991 50.0416C16.6525 48.0911 14.6651 45.672 13.2369 42.793C11.7399 39.7947 11 36.4984 11 32.9124C11 29.9567 11.6453 27.0947 12.9444 24.335C14.7167 20.5275 17.3665 17.5207 20.894 15.3146C24.3439 13.1426 28.1983 12.0438 32.457 12.0012C36.6038 11.9586 40.4066 13.0319 43.8737 15.2124C47.3409 17.393 49.9736 20.2635 51.7631 23.8324C53.2601 26.7881 54 29.9226 54 33.2361C54 36.9668 53.0708 40.4506 51.2211 43.7044C49.7929 46.2172 47.9604 48.3296 45.7235 50.0587C45.2761 50.3824 40.0538 54.0365 37.6879 50.3824C36.1479 47.2989 35.5026 43.8237 37.2405 40.5699C37.5158 40.0588 37.8599 39.5818 38.2557 39.1644C39.1418 38.219 40.0968 37.6227 41.3615 37.4524C43.0736 37.2224 46.2655 38.2445 46.5064 35.3059C46.5322 34.9907 46.5064 34.667 46.4118 34.3604L46.3859 34.2837C46.2913 33.9856 46.1364 33.7045 45.9386 33.466C45.7493 33.2361 45.5084 33.0401 45.2589 32.9039C43.4006 31.9158 42.523 33.7642 41.2239 34.6841C40.7593 35.0163 40.2345 35.3229 39.6753 35.3825C38.445 35.5018 37.49 34.6074 38.1869 33.2786C38.4536 32.7761 38.7805 32.2991 39.1849 31.9158C40.3635 30.8 42.2993 30.3656 41.8863 28.1765C41.8261 27.8784 41.7229 27.5802 41.5594 27.3247C41.396 27.0607 41.1809 26.8222 40.94 26.6433L40.8797 26.6007C40.6302 26.4303 40.3463 26.3111 40.0538 26.26C39.7699 26.2089 39.4774 26.2174 39.1935 26.277C36.6124 26.8733 37.8341 30.1015 36.4404 31.7029C35.8037 32.4354 34.4186 33.4746 33.8077 32.018C33.6529 31.6432 33.5926 31.2173 33.584 30.8085C33.584 30.2889 33.6357 29.7608 33.7819 29.2583C34.2293 27.6995 35.494 26.2855 34.0744 24.7438C33.8766 24.5224 33.627 24.3435 33.3689 24.2242C33.1022 24.105 32.8183 24.0368 32.5258 24.0283H32.5C32.2075 24.0283 31.9064 24.105 31.631 24.2242C31.3643 24.3435 31.1234 24.5309 30.9256 24.7438C29.506 26.2855 30.7707 27.6995 31.2181 29.2583C31.3643 29.7608 31.4246 30.2889 31.416 30.8085C31.416 31.2173 31.3471 31.6432 31.1923 32.018C30.5814 33.4746 29.1877 32.4354 28.5596 31.7029C27.1659 30.093 28.3876 26.8648 25.8065 26.277C25.5226 26.2089 25.2301 26.2004 24.9462 26.26C24.6537 26.3196 24.3697 26.4303 24.1202 26.6007L24.06 26.6433C23.8191 26.8222 23.604 27.0607 23.4406 27.3247C23.2857 27.5802 23.1739 27.8784 23.1136 28.1765C22.7007 30.3741 24.6451 30.8 25.8151 31.9158C26.2195 32.2991 26.5464 32.7761 26.8131 33.2786C27.51 34.6074 26.555 35.4933 25.3247 35.3825C24.7655 35.3314 24.2407 35.0163 23.7761 34.6841C22.477 33.7556 21.5908 31.9073 19.7411 32.9039C19.483 33.0401 19.2507 33.2361 19.0614 33.466C18.8635 33.7045 18.7087 33.9856 18.614 34.2837L18.5882 34.3604C18.5022 34.667 18.4678 34.9907 18.4936 35.3059C18.7345 38.236 21.9264 37.2139 23.6385 37.4524C24.9032 37.6227 25.8667 38.219 26.7443 39.1644C27.1315 39.5818 27.4842 40.0588 27.7595 40.5699C29.3856 43.6022 28.9296 46.8219 27.6219 49.7435C25.4108 54.5476 19.4314 50.212 19.2077 50.0502L19.1991 50.0416Z" fill="black"/>
  </g>
</svg>
