<svg width="127" height="24" viewBox="0 0 127 24" fill="none" xmlns="http://www.w3.org/2000/svg">
<path d="M27.4161 12.978V22.724H21.0588V14.0537C21.0588 12.8499 20.1758 12.2095 18.9691 12.2095C17.7623 12.2095 16.8794 12.8499 16.8794 14.0537V22.724H10.522V14.0537C10.522 12.8499 9.66848 12.2095 8.47648 12.2095C7.28447 12.2095 6.38679 12.8499 6.38679 14.0537V22.724H0V7.138H6.38679V8.39308C7.29919 7.47098 8.6825 6.7666 10.8016 6.7666C13.3475 6.7666 14.8338 7.66309 15.7168 8.82851C16.8058 7.72712 18.5129 6.7666 20.9852 6.7666C26.4301 6.7666 27.4161 10.6983 27.4161 12.978Z" fill="#F26A3B"/>
<path d="M49.0933 14.9501C49.0933 19.7143 45.061 23.1209 39.4836 23.1209C33.9062 23.1209 29.874 19.7143 29.874 14.9501C29.874 10.1859 33.9062 6.7793 39.4836 6.7793C45.061 6.7793 49.0933 10.1859 49.0933 14.9501ZM42.6623 14.9501C42.6623 13.234 41.3232 12.1582 39.4836 12.1582C37.6441 12.1582 36.2755 13.234 36.2755 14.9501C36.2755 16.6662 37.6588 17.7164 39.4836 17.7164C41.3084 17.7164 42.6623 16.6662 42.6623 14.9501Z" fill="#F26A3B"/>
<path d="M58.7318 7.1379H62.2637V11.8124H58.7318V22.7239H52.3745V11.8124H50.1523V7.1379H52.3745C52.3745 4.24354 53.331 0.222168 59.4676 0.222168C60.6744 0.222168 61.5868 0.375851 62.2637 0.465499V4.98634C62.0135 4.96073 61.6309 4.92231 61.2041 4.92231C59.3646 4.92231 58.7318 5.87002 58.7318 7.1379Z" fill="#F26A3B"/>
<path d="M92.1524 12.978V22.724H85.7951V14.0537C85.7951 12.8499 84.9121 12.2095 83.7054 12.2095C82.4987 12.2095 81.6157 12.8499 81.6157 14.0537V22.724H75.2583V14.0537C75.2583 12.8499 74.4048 12.2095 73.2128 12.2095C72.0208 12.2095 71.1231 12.8499 71.1231 14.0537V22.724H64.7363V7.138H71.1231V8.39308C72.0355 7.47098 73.4188 6.7666 75.538 6.7666C78.0838 6.7666 79.5702 7.66309 80.4531 8.82851C81.5421 7.72712 83.2492 6.7666 85.7215 6.7666C91.1665 6.7666 92.1524 10.6983 92.1524 12.978Z" fill="#F26A3B"/>
<path d="M113.829 14.9501C113.829 19.7143 109.796 23.1209 104.219 23.1209C98.6416 23.1209 94.6094 19.7143 94.6094 14.9501C94.6094 10.1859 98.6416 6.7793 104.219 6.7793C109.796 6.7793 113.829 10.1859 113.829 14.9501ZM107.398 14.9501C107.398 13.234 106.059 12.1582 104.219 12.1582C102.379 12.1582 101.011 13.234 101.011 14.9501C101.011 16.6662 102.394 17.7164 104.219 17.7164C106.044 17.7164 107.398 16.6662 107.398 14.9501Z" fill="#F26A3B"/>
<path d="M123.468 7.1379H127V11.8124H123.468V22.7239H117.111V11.8124H114.889V7.1379H117.111C117.111 4.24354 118.067 0.222168 124.204 0.222168C125.411 0.222168 126.323 0.375851 127 0.465499V4.98634C126.75 4.96073 126.367 4.92231 125.94 4.92231C124.101 4.92231 123.468 5.87002 123.468 7.1379Z" fill="#F26A3B"/>
</svg>