<svg width="56" height="34" viewBox="0 0 56 34" fill="none" xmlns="http://www.w3.org/2000/svg">
<g clip-path="url(#clip0_497_1129)">
<path d="M56 15.1499C56 5.6434 50.1646 0 42.9692 0C39.1332 0 35.6866 1.7512 33.3036 4.64853C33.0595 4.95106 32.5829 4.95106 32.333 4.64853C29.9442 1.7512 26.4976 0 22.6615 0C17.8782 0 13.6992 2.62971 11.4325 7.02224L11.9149 0H2.90607C1.30192 0 0 1.23922 0 2.77515V31.6903C0 32.9644 1.08687 34 2.42366 34H56V15.5513H55.9942C55.9942 15.4175 56 15.2837 56 15.1557V15.1499Z" fill="#D9D9D9"/>
<path d="M23.9406 19.4202C23.9406 19.4202 24.144 17.9774 25.0449 18.3439L26.155 18.8792C26.2945 19.525 26.8409 20.0078 27.5035 20.0078C28.2707 20.0078 28.8926 19.3562 28.8926 18.5592C28.8926 17.7621 28.2707 17.1105 27.5035 17.1105C27.1489 17.1105 26.8234 17.256 26.5793 17.4887L25.2658 16.488C24.5393 15.9818 24.7369 15.5339 24.9054 15.3186C24.9461 15.272 25.0507 15.1731 25.0507 15.1731L25.0856 15.1441L26.7769 13.8583C27.0152 14.0561 27.3117 14.1841 27.643 14.1841C28.4102 14.1841 29.0321 13.5325 29.0321 12.7354C29.0321 11.9384 28.4102 11.2868 27.643 11.2868C26.8757 11.2868 26.2887 11.9035 26.2597 12.6714C26.2597 12.6714 24.3126 13.7361 24.115 13.7536C23.9522 13.7652 23.65 13.7536 23.5861 13.3521C23.5803 13.3056 23.5686 13.2532 23.5628 13.2067L23.5105 12.5725L23.3478 10.6468C23.7314 10.3908 23.9813 9.94282 23.9813 9.43084C23.9813 8.62797 23.3594 7.98218 22.5922 7.98218C21.825 7.98218 21.2031 8.63379 21.2031 9.43084C21.2031 9.94282 21.4588 10.385 21.8366 10.6468L21.6739 12.5725L21.6216 13.2067C21.6158 13.2532 21.6099 13.2998 21.5983 13.3521C21.5344 13.7477 21.2322 13.771 21.0694 13.7536C20.8718 13.7361 18.9247 12.6772 18.9247 12.6772C18.8899 11.9035 18.2854 11.2868 17.5414 11.2868C16.7975 11.2868 16.1523 11.9384 16.1523 12.7354C16.1523 13.5325 16.7742 14.1841 17.5414 14.1841C17.8727 14.1841 18.1692 14.0619 18.4075 13.8583L20.0988 15.1441L20.1337 15.1731C20.1337 15.1731 20.2441 15.272 20.279 15.3186C20.4475 15.5339 20.6451 15.9818 19.9186 16.488L18.6051 17.4887C18.361 17.256 18.0355 17.1105 17.6809 17.1105C16.9137 17.1105 16.2918 17.7621 16.2918 18.5592C16.2918 19.3562 16.9137 20.0078 17.6809 20.0078C18.3435 20.0078 18.8899 19.525 19.0294 18.8792L20.1395 18.3439C21.0404 17.9774 21.2438 19.4202 21.2438 19.4202C21.8076 21.2936 20.4475 31.9811 20.1802 34H25.0042C24.7427 31.987 23.3768 21.2994 23.9406 19.4202Z" fill="white"/>
<path d="M45.4279 19.4202C45.4279 19.4202 45.6313 17.9774 46.5322 18.3439L47.6423 18.8792C47.7818 19.525 48.3282 20.0078 48.9908 20.0078C49.758 20.0078 50.3799 19.3562 50.3799 18.5592C50.3799 17.7621 49.758 17.1105 48.9908 17.1105C48.6362 17.1105 48.3107 17.256 48.0666 17.4887L46.7531 16.488C46.0266 15.9818 46.2242 15.5339 46.3927 15.3186C46.4334 15.272 46.538 15.1731 46.538 15.1731L46.5729 15.1441L48.2642 13.8583C48.5025 14.0561 48.799 14.1841 49.1303 14.1841C49.8975 14.1841 50.5194 13.5325 50.5194 12.7354C50.5194 11.9384 49.8975 11.2868 49.1303 11.2868C48.3631 11.2868 47.776 11.9035 47.747 12.6714C47.747 12.6714 45.7999 13.7361 45.6023 13.7536C45.4395 13.7652 45.1373 13.7536 45.0734 13.3521C45.0676 13.3056 45.0559 13.2532 45.0501 13.2067L44.9978 12.5725L44.8351 10.6468C45.2187 10.3908 45.4686 9.94282 45.4686 9.43084C45.4686 8.62797 44.8467 7.98218 44.0795 7.98218C43.3123 7.98218 42.6904 8.63379 42.6904 9.43084C42.6904 9.94282 42.9461 10.385 43.3239 10.6468L43.1612 12.5725L43.1089 13.2067C43.1031 13.2532 43.0972 13.2998 43.0856 13.3521C43.0217 13.7477 42.7195 13.771 42.5567 13.7536C42.3591 13.7361 40.412 12.6772 40.412 12.6772C40.3772 11.9035 39.7727 11.2868 39.0288 11.2868C38.2848 11.2868 37.6396 11.9384 37.6396 12.7354C37.6396 13.5325 38.2615 14.1841 39.0288 14.1841C39.36 14.1841 39.6565 14.0619 39.8948 13.8583L41.5861 15.1441L41.621 15.1731C41.621 15.1731 41.7314 15.272 41.7663 15.3186C41.9348 15.5339 42.1324 15.9818 41.4059 16.488L40.0924 17.4887C39.8483 17.256 39.5228 17.1105 39.1682 17.1105C38.401 17.1105 37.7791 17.7621 37.7791 18.5592C37.7791 19.3562 38.401 20.0078 39.1682 20.0078C39.8308 20.0078 40.3772 19.525 40.5167 18.8792L41.6268 18.3439C42.5277 17.9774 42.7311 19.4202 42.7311 19.4202C43.2949 21.2936 41.9348 31.9811 41.6675 34H46.4915C46.23 31.987 44.8641 21.2994 45.4279 19.4202Z" fill="white"/>
</g>
<defs>
<clipPath id="clip0_497_1129">
<rect width="56" height="34" fill="white"/>
</clipPath>
</defs>
</svg>
