<svg width="17" height="17" viewBox="0 0 17 17" fill="none" xmlns="http://www.w3.org/2000/svg">
<path d="M1.42204 13.4943L2.37072 13.8105L2.37072 13.8105L1.42204 13.4943ZM2.19336 11.1804L1.24468 10.8641L1.24468 10.8641L2.19336 11.1804ZM2.98924 9.89259L3.69635 10.5997L3.69635 10.5997L2.98924 9.89259ZM10.6756 2.20618L9.96854 1.49908L9.96854 1.49908L10.6756 2.20618ZM14.7938 6.32436L15.5009 7.03146L15.5009 7.03146L14.7938 6.32436ZM7.10741 14.0108L6.40031 13.3037L6.40031 13.3037L7.10741 14.0108ZM5.81965 14.8066L6.13588 15.7553L6.13588 15.7553L5.81965 14.8066ZM3.50569 15.578L3.82191 16.5266L3.82191 16.5266L3.50569 15.578ZM6.68526 14.4048L6.08302 13.6065L6.08301 13.6065L6.68526 14.4048ZM6.36088 14.6053L5.91617 13.7096L5.91617 13.7096L6.36088 14.6053ZM15.7859 3.351L14.8899 3.79502L14.8899 3.79502L15.7859 3.351ZM15.7859 5.17954L14.8899 4.73552L14.8899 4.73552L15.7859 5.17954ZM11.8205 1.21411L12.2645 2.11013L12.2645 2.11012L11.8205 1.21411ZM13.649 1.21411L13.205 2.11012L13.205 2.11013L13.649 1.21411ZM2.39473 10.6391L3.29041 11.0838L3.29041 11.0838L2.39473 10.6391ZM2.59521 10.3147L1.79689 9.7125L1.79689 9.7125L2.59521 10.3147ZM1.03833 15.3377L0.0964278 15.6736L1.03833 15.3377ZM1.66226 15.9617L1.32638 16.9036L1.32638 16.9036L1.66226 15.9617ZM10.3532 2.52866C9.96268 2.13813 9.32951 2.13813 8.93899 2.52866C8.54846 2.91918 8.54846 3.55234 8.93899 3.94287L10.3532 2.52866ZM13.0572 8.06104C13.4477 8.45156 14.0808 8.45156 14.4714 8.06104C14.8619 7.67052 14.8619 7.03735 14.4714 6.64683L13.0572 8.06104ZM2.37072 13.8105L3.14204 11.4966L1.24468 10.8641L0.473355 13.1781L2.37072 13.8105ZM3.69635 10.5997L11.3828 2.91329L9.96854 1.49908L2.28213 9.18548L3.69635 10.5997ZM14.0867 5.61725L6.40031 13.3037L7.81452 14.7179L15.5009 7.03146L14.0867 5.61725ZM5.50342 13.858L3.18946 14.6293L3.82191 16.5266L6.13588 15.7553L5.50342 13.858ZM6.40031 13.3037C6.17633 13.5276 6.12919 13.5716 6.08302 13.6065L7.28749 15.2031C7.47033 15.0652 7.62829 14.9041 7.81452 14.7179L6.40031 13.3037ZM6.13588 15.7553C6.38573 15.672 6.60045 15.6028 6.80558 15.5009L5.91617 13.7096C5.86436 13.7353 5.80391 13.7578 5.50342 13.858L6.13588 15.7553ZM6.08301 13.6065C6.03071 13.6459 5.97486 13.6805 5.91617 13.7096L6.80558 15.5009C6.97509 15.4168 7.13642 15.3171 7.2875 15.2031L6.08301 13.6065ZM14.0867 2.91329C14.7052 3.53174 14.8311 3.67635 14.8899 3.79502L16.6819 2.90699C16.4406 2.42009 16.0052 2.00334 15.5009 1.49908L14.0867 2.91329ZM15.5009 7.03146C16.0052 6.5272 16.4406 6.11045 16.6819 5.62355L14.8899 4.73552C14.8311 4.85419 14.7052 4.9988 14.0867 5.61725L15.5009 7.03146ZM14.8899 3.79502C15.0367 4.09133 15.0367 4.43921 14.8899 4.73552L16.6819 5.62355C17.106 4.76769 17.106 3.76285 16.6819 2.90699L14.8899 3.79502ZM11.3828 2.91329C12.0012 2.29484 12.1458 2.16893 12.2645 2.11013L11.3764 0.318087C10.8896 0.559364 10.4728 0.994816 9.96854 1.49908L11.3828 2.91329ZM15.5009 1.49908C14.9967 0.994812 14.5799 0.559364 14.093 0.318087L13.205 2.11013C13.3236 2.16893 13.4683 2.29484 14.0867 2.91329L15.5009 1.49908ZM12.2645 2.11012C12.5608 1.96329 12.9087 1.96329 13.205 2.11012L14.093 0.318087C13.2372 -0.106029 12.2323 -0.106029 11.3764 0.318087L12.2645 2.11012ZM3.14204 11.4966C3.24221 11.1961 3.26468 11.1356 3.29041 11.0838L1.49905 10.1944C1.3972 10.3995 1.32796 10.6143 1.24468 10.8641L3.14204 11.4966ZM2.28214 9.18548C2.09591 9.3717 1.93482 9.52967 1.79689 9.7125L3.39352 10.917C3.42836 10.8708 3.47238 10.8237 3.69635 10.5997L2.28214 9.18548ZM3.29041 11.0838C3.31954 11.0251 3.35406 10.9693 3.39352 10.917L1.79689 9.7125C1.68292 9.86358 1.58321 10.0249 1.49905 10.1944L3.29041 11.0838ZM0.473355 13.1781C0.311998 13.6622 0.168077 14.0908 0.0862276 14.4391C0.00786462 14.7726 -0.0646508 15.2219 0.0964278 15.6736L1.98024 15.0019C2.02204 15.1191 1.97372 15.1497 2.0332 14.8966C2.08919 14.6583 2.19676 14.3324 2.37072 13.8105L0.473355 13.1781ZM3.18946 14.6293C2.66757 14.8032 2.3417 14.9108 2.10342 14.9668C1.8503 15.0263 1.88091 14.978 1.99814 15.0198L1.32638 16.9036C1.7781 17.0647 2.22744 16.9921 2.56092 16.9138C2.90924 16.8319 3.33784 16.688 3.82191 16.5266L3.18946 14.6293ZM0.0964278 15.6736C0.301043 16.2474 0.752583 16.699 1.32638 16.9036L1.99814 15.0198C1.98979 15.0168 1.98322 15.0102 1.98024 15.0019L0.0964278 15.6736ZM8.93899 3.94287L13.0572 8.06104L14.4714 6.64683L10.3532 2.52866L8.93899 3.94287Z" fill="#FF5500"/>
</svg>
