<svg width="240" height="240" viewBox="0 0 240 240" fill="none" xmlns="http://www.w3.org/2000/svg">
	<path d="M203.137 201.42C201.705 190.264 195.373 171.494 191.529 166.443C187.308 160.941 185.574 159.207 171.478 154.458C170.724 150.689 167.935 141.191 164.618 137.196C159.568 129.583 145.773 127.849 141.627 128.753C141.627 128.753 119.315 120.914 93.6101 120.914C85.4691 122.723 76.0466 126.417 70.9207 134.181C67.4532 139.307 71.373 140.965 69.6392 145.639C69.187 146.845 58.6337 152.875 54.3371 156.493C52.3772 158.076 50.1912 162.071 48.6836 167.273C45.6684 177.901 48.9097 192.6 45.1407 205.415C37.9042 230.14 23.2051 237.527 23.2051 237.527H217.987C217.837 237.451 206.228 224.938 203.137 201.42Z" fill="white"/>
	<path d="M202.008 201.571C200.5 191.696 197.485 181.896 193.641 172.7C191.756 168.253 188.892 163.956 184.896 161.318C182.861 160.036 180.6 159.056 178.263 158.076C175.926 157.172 173.514 156.342 171.177 155.513C170.8 155.363 170.499 155.061 170.423 154.684C170.122 153.177 169.745 151.744 169.293 150.237C167.333 144.131 165.222 137.347 159.493 133.804C155.121 131.166 149.92 129.884 144.87 129.658C143.89 129.658 142.834 129.658 141.93 129.809H141.628C141.553 129.809 141.402 129.809 141.327 129.733C137.709 128 133.713 126.944 129.794 125.889C118.034 123.175 105.747 122.045 93.6865 121.969C86.2993 123.703 75.9722 127.773 71.4494 135.311C70.6956 136.518 70.3187 137.724 70.4694 139.08C70.6202 140.588 71.1478 142.246 70.7709 143.829C70.6202 144.508 70.4694 145.262 70.1679 145.865C69.5649 146.694 68.5849 147.221 67.8311 147.749C63.9114 150.312 59.9162 152.573 56.1472 155.212C54.8657 156.116 53.6597 156.946 52.7551 158.227C50.1168 161.996 48.5338 166.519 47.8554 171.042C46.6493 180.238 47.8554 189.585 46.6493 198.782C45.2925 207.978 41.7496 216.873 36.7745 224.712C33.307 229.989 29.0857 234.889 23.7337 238.281L23.2061 236.17H217.988L217.159 238.055C214.898 235.492 213.089 232.703 211.43 229.763C206.304 221.169 203.289 211.445 202.008 201.571ZM204.269 201.269C205.098 207.676 206.681 214.008 209.094 220.039C211.506 225.994 214.521 231.798 218.742 236.698C219.345 237.376 218.818 238.658 217.913 238.582H23.1307C22.5277 238.582 22 238.055 22 237.452C22 236.999 22.2261 236.622 22.603 236.472C23.8091 235.793 25.0152 234.813 26.1459 233.833C36.0207 224.938 42.2019 211.747 44.2371 198.631C45.9709 186.344 42.7295 173.077 48.2323 161.393C49.5137 158.679 51.0967 155.815 53.6597 154.081C58.3332 150.614 63.4591 148.051 68.0573 144.659C68.1326 144.659 68.1326 144.583 68.1326 144.583C68.0573 144.659 67.9819 144.809 67.9819 144.885C68.4342 143.829 68.5849 142.925 68.4342 141.719C68.208 140.211 67.8311 138.176 68.3588 136.593C68.5849 135.688 69.0372 134.859 69.4895 134.181C74.9169 126.04 84.4901 122.421 93.6111 120.386C96.174 120.462 98.8124 120.009 101.375 120.009C104.918 120.009 108.536 120.537 112.079 120.989C122.256 122.572 132.055 125.286 142.081 127.472L141.402 127.397C143.739 126.944 145.925 127.17 148.186 127.472C162.659 129.658 167.559 135.99 171.479 149.483C171.931 150.991 172.308 152.498 172.685 154.081L171.931 153.177C179.168 155.739 187.309 158.076 191.907 164.785C193.565 166.82 194.771 169.233 195.827 171.645C199.671 181.293 202.686 191.017 204.269 201.269Z" fill="black"/>
	<path d="M84.339 151.82C89.9172 163.73 98.5859 173.831 108.913 181.821C109.29 182.123 108.913 182.726 108.461 182.5C99.2643 178.128 91.5001 170.665 86.902 161.62C85.3944 158.604 84.1129 155.363 83.6606 151.971C83.5099 151.594 84.1129 151.443 84.339 151.82Z" fill="black"/>
	<path d="M172.611 154.308C172.837 166.896 167.711 179.786 157.912 187.927C157.686 188.153 157.384 188.078 157.158 187.852C156.932 187.626 157.007 187.324 157.233 187.098C159.419 184.987 161.605 182.801 163.264 180.238C166.731 175.263 168.842 169.384 169.822 163.429C170.274 160.489 170.576 157.323 170.35 154.383C170.274 152.951 172.536 152.8 172.611 154.308Z" fill="black"/>
	<path d="M128.211 184.233C126.477 190.339 125.045 196.972 125.874 203.304C126.1 204.736 123.914 205.113 123.612 203.606C123.236 200.138 123.688 196.746 124.291 193.429C124.969 190.113 125.798 186.947 126.929 183.781C127.231 183.027 128.512 183.404 128.211 184.233Z" fill="black"/>
	<path d="M152.18 183.102C154.668 188.454 156.402 194.033 157.758 199.686C157.909 200.289 157.532 200.892 156.929 201.043C156.326 201.194 155.723 200.817 155.572 200.214C154.819 195.992 153.839 191.771 152.482 187.625C152.03 186.268 151.577 184.912 151.05 183.555C150.748 182.876 151.803 182.349 152.18 183.102Z" fill="black"/>
	<path d="M71.2242 145.337C74.0133 160.564 84.7173 173.454 97.6073 181.67C101.979 184.459 106.653 186.871 111.477 188.831C111.779 188.982 111.929 189.284 111.779 189.585C111.703 189.887 111.326 190.037 111.1 189.887C106.125 188.077 101.301 185.816 96.7781 183.102C87.5817 177.675 79.516 170.137 74.0887 160.941C71.2996 156.192 69.1136 151.217 68.0582 145.789C67.9075 144.885 68.5105 144.056 69.4151 143.905C70.2443 143.679 71.1488 144.357 71.2242 145.337Z" fill="black"/>
	<path d="M123.688 204.963C121.577 204.737 120.07 202.777 120.522 200.666L121.351 196.671C121.653 195.088 123.16 193.957 124.743 194.183C126.326 194.334 127.608 195.691 127.608 197.349V201.42C127.683 203.53 125.874 205.189 123.688 204.963Z" fill="black"/>
	<path d="M158.438 202.174C156.403 202.928 154.217 201.721 153.689 199.611L152.709 195.616C152.332 194.033 153.162 192.45 154.745 191.847C156.252 191.319 157.986 191.997 158.664 193.43L160.473 197.123C161.378 199.159 160.473 201.495 158.438 202.174Z" fill="black"/>
	<path d="M60.2191 235.452C60.2191 235.452 59.5407 218.642 57.2793 214.119" stroke="black" stroke-width="5.1257" stroke-miterlimit="10" stroke-linecap="round" stroke-linejoin="round"/>
	<path d="M193.264 197.912C193.264 197.912 197.485 221.582 195.827 235.452" stroke="black" stroke-width="5.1257" stroke-miterlimit="10" stroke-linecap="round" stroke-linejoin="round"/>
	<path d="M181.128 222.677C181.128 222.677 169.971 224.335 160.172 223.883" stroke="black" stroke-width="5.1257" stroke-miterlimit="10" stroke-linecap="round" stroke-linejoin="round"/>
	<path d="M94.8169 142.623C93.7615 139.608 93.3093 136.518 93.5354 133.352C93.5354 133.05 93.7615 132.899 94.0631 132.899C94.2892 132.899 94.5153 133.126 94.5153 133.352C94.7415 136.216 95.5707 139.156 96.9275 141.644C97.6059 143.151 95.3445 144.131 94.8169 142.623Z" fill="black"/>
	<path d="M145.774 146.619C143.663 141.87 138.462 139.458 133.864 137.799C130.999 136.895 127.833 136.216 124.818 135.764C117.506 134.633 107.179 132.9 99.8671 132.146C99.7917 132.146 99.7917 131.995 99.8671 131.995C101.978 131.769 104.088 131.769 106.199 131.769C112.531 131.92 118.863 132.598 125.119 133.578C131.376 134.558 138.085 136.442 142.834 140.965C144.341 142.548 145.698 144.357 146.075 146.543C146.15 146.769 145.849 146.845 145.774 146.619Z" fill="black"/>
	<path d="M148.767 169.423C147.184 177.187 136.932 181.86 119.67 174.85C101.73 167.614 93.9657 150.352 92.0059 145.226C102.634 125.325 95.2472 111.531 95.2472 111.531C119.746 109.42 141.154 138.065 141.154 138.065L144.47 152.236C144.772 153.442 145.375 154.498 146.28 155.251C147.863 158.04 149.747 164.448 148.767 169.423Z" fill="white"/>
	<path d="M91.6291 145.452C93.0613 143.266 93.9659 140.703 94.569 138.215C95.6997 133.014 96.0766 127.738 96.1519 122.461V120.501C95.9258 118.541 95.2474 116.506 94.4936 114.697C93.5136 112.285 97.0565 110.777 98.1872 113.189C98.338 113.491 98.338 114.018 98.338 114.32C98.5641 124.572 99.0164 137.763 92.5337 146.281C92.0814 146.733 91.1768 146.055 91.6291 145.452Z" fill="black"/>
	<path d="M141.982 137.914C143.113 138.592 143.49 139.497 143.641 140.401C144.093 142.211 143.942 144.171 144.394 146.055C144.771 147.864 145.902 149.598 146.203 151.482C146.58 153.442 147.711 157.588 148.163 159.623C148.314 160.076 148.013 160.603 147.485 160.679C147.183 160.754 146.957 160.679 146.731 160.528C145.751 159.699 145.299 158.87 144.696 157.814C143.716 156.005 143.037 154.347 142.434 152.312C141.907 150.502 142.133 148.543 141.681 146.658C141.304 144.849 140.248 143.115 139.872 141.231C139.645 140.326 139.57 139.346 140.248 138.215C140.701 137.763 141.454 137.612 141.982 137.914Z" fill="black"/>
	<path d="M147.41 157.814C133.012 157.06 121.253 152.538 109.795 132.11C119.444 140.628 130.826 143.869 142.811 145.377L144.394 152.311C144.696 153.518 146.505 157.06 147.41 157.814Z" fill="black"/>
	<path d="M146.807 155.025C149.37 159.849 150.878 165.88 149.295 171.232C148.089 175.001 144.621 177.79 140.852 178.845C132.108 181.182 122.007 177.488 114.243 173.342C104.67 167.99 97.584 159.02 93.0611 149.221C92.7596 148.467 93.8149 147.864 94.2672 148.618C95.8502 151.784 97.6593 154.874 99.6946 157.663C101.73 160.528 104.067 163.166 106.705 165.503C114.394 172.438 124.796 176.734 135.199 176.734C145.903 176.433 149.973 170.779 147.486 160.377C147.109 158.719 146.506 156.985 145.676 155.553C145.224 154.95 146.355 154.271 146.807 155.025Z" fill="black"/>
	<path d="M175.978 64.4935C177.335 70.8255 178.014 75.9513 174.32 92.8365C170.702 109.646 177.712 126.607 159.922 142.06C147.937 152.462 126.981 154.422 110.247 143.04C104.593 139.195 103.086 121.255 98.6384 114.395C96.7539 111.531 95.6232 116.129 91.3265 111.38C85.3715 104.897 78.2104 91.8565 81.7532 68.7902C87.4821 31.4016 117.107 27.0296 139.042 31.1755C161.053 35.3214 172.36 47.8345 175.978 64.4935Z" fill="white"/>
	<path d="M95.0215 118.013C93.2878 115.149 91.1017 112.661 89.0665 110.023C86.0513 105.953 83.7899 101.279 82.2823 96.4546C75.7996 75.8005 79.267 48.8898 98.4136 35.9998C116.128 24.0143 149.974 27.6326 165.502 42.1056C173.266 49.1159 177.563 59.2922 178.467 69.5439C178.92 76.4035 177.261 83.037 175.829 89.6704C174.171 96.1531 173.794 102.636 173.794 109.345C173.718 116.053 173.417 123.064 170.854 129.396C166.934 139.044 158.718 146.884 148.843 150.201C135.878 154.723 120.575 152.161 109.947 143.492C109.494 143.115 109.947 142.512 110.474 142.738C124.42 150.653 142.737 152.01 156.306 142.889C164.371 137.461 169.949 128.868 171.231 119.219C172.286 112.661 171.985 106.028 172.588 99.3945C172.814 96.4546 173.643 92.3841 174.246 89.4443C175.151 84.5446 175.754 79.6449 175.678 74.7452C175.603 69.9208 174.548 65.1719 173.115 60.5737C168.14 44.2162 153.893 34.5676 137.461 31.9293C112.887 27.6326 91.4033 36.7536 84.9959 62.3074C82.2069 74.8205 80.0209 88.6151 85.2975 100.751C87.182 105.349 90.2725 109.269 93.8154 112.661L97.2829 116.355C98.7905 117.863 96.2276 119.822 95.0215 118.013Z" fill="black"/>
	<path d="M103.916 94.0425C103.916 94.0425 101.579 82.7354 90.5737 84.0923C81.0758 85.2984 77.7591 108.063 99.3178 114.395" fill="white"/>
	<path d="M98.3366 104.521C96.6029 103.541 95.3968 101.882 95.3214 99.8469C95.3968 98.3393 95.6229 96.6056 95.246 95.098C95.0199 93.6658 93.5123 93.2889 92.3816 93.3643C91.1755 93.5904 90.4217 95.098 90.1956 96.3041C90.1956 96.3795 90.1202 96.6056 90.1202 96.681C90.0448 97.0579 89.4418 97.0579 89.291 96.681C88.3111 93.7412 90.4971 90.4998 93.6631 90.8767C98.1105 91.1782 98.7135 95.8518 97.8843 99.3947C97.4321 100.902 98.0351 102.259 98.8643 103.541L99.015 103.767C99.3919 104.219 98.7889 104.822 98.3366 104.521Z" fill="black"/>
	<path d="M158.642 86.0522C159.773 91.4042 161.884 96.3793 164.522 101.053C166.859 106.782 160.828 112.209 155.476 111.983C154.873 111.983 154.798 111.154 155.326 111.003C158.718 109.948 161.808 107.686 162.336 104.219C162.562 103.163 162.26 102.259 161.733 101.354C159.245 96.6808 157.738 91.3288 158.115 86.0522C158.115 85.6753 158.642 85.6753 158.642 86.0522Z" fill="black"/>
	<path d="M103.537 94.1179C101.804 89.6705 98.0347 85.4492 92.9842 85.5246C92.5319 85.4492 91.7781 85.6 91.3259 85.6C90.0444 85.6753 88.9891 86.1276 88.0091 87.0322C83.1848 91.8565 84.014 100.374 87.9337 105.726C89.2906 107.611 91.0243 109.269 92.9842 110.626C94.9441 111.983 97.1301 113.038 99.4669 113.943C99.9946 114.094 99.7684 114.923 99.2408 114.847C94.1903 113.792 89.366 111.305 86.0492 107.159C80.9234 100.978 79.8681 90.6504 85.9739 84.62C87.3307 83.414 89.2152 82.5094 91.0997 82.5094C91.7028 82.5094 92.6073 82.3586 93.2104 82.5094C96.3763 82.6601 99.3915 84.2431 101.351 86.7307C103.085 88.8413 104.065 91.4042 104.367 93.9672C104.367 94.4194 103.688 94.5702 103.537 94.1179Z" fill="black"/>
	<path d="M92.7794 111.074C94.4377 112.205 96.8499 113.411 96.8499 113.411C96.8499 113.411 97.3022 120.119 97.2268 122.456C97.1514 124.642 96.3222 131.351 96.3222 131.351C96.3222 131.351 94.287 119.969 88.2566 113.637C84.9398 110.169 79.5878 106.325 76.4219 92.8318L79.5125 93.3595C79.5125 93.3595 81.5477 86.9522 81.5477 87.4045C81.5477 87.7814 81.5477 93.9625 81.5477 93.9625L83.4322 94.1133C83.0553 99.7668 85.769 106.325 92.7794 111.074Z" fill="#D6D6D6"/>
	<path d="M93.4587 110.094C94.891 110.998 96.4739 111.828 97.9815 112.581L98.0569 113.26C98.2077 115.973 98.5846 119.667 98.5092 122.381C98.2831 127.356 97.1524 133.16 96.5493 138.06C95.1171 130.823 93.6095 122.833 89.3128 116.652C87.2776 113.712 84.187 111.451 82.001 108.435C78.5335 103.913 76.5736 98.4099 75.2167 92.9825L74.8398 91.3242C75.8952 91.4749 78.5335 91.9272 79.5888 92.1533L78.3073 92.9071L79.2873 89.8166C79.438 89.3643 79.8903 87.9321 80.0411 87.4798C80.1918 87.1783 80.2672 86.8014 80.4934 86.4998C81.1718 85.6707 82.5286 86.1983 82.4532 87.329V93.8117L81.3979 92.681L83.1317 93.9625C83.6593 100.747 87.8052 106.702 93.4587 110.094ZM92.4788 111.601C86.6745 107.682 82.4532 101.199 82.604 94.0378L83.2824 94.867L81.3979 95.0178L80.4934 95.0932C80.3426 94.3394 80.418 88.309 80.418 87.4044V87.329V87.4044C80.418 87.4798 80.418 87.5552 80.4934 87.6305C80.7195 88.4597 81.9256 88.6105 82.3779 88.0074C82.4532 87.9321 82.4532 87.8567 82.5286 87.7813L82.4532 87.9321C82.2271 88.6105 81.7748 89.8919 81.5487 90.5704C81.3225 91.2488 80.4934 93.8871 80.2672 94.5655C79.5888 94.4147 76.9505 94.0379 76.1967 93.8871L77.4781 92.5302C79.1365 99.5406 82.001 106.174 87.4283 111.149C93.0818 116.275 95.8709 123.738 97.4539 131.125L95.1925 131.2C95.8709 126.904 96.7001 122.305 96.3232 117.933L96.097 113.486L96.4739 114.089C95.1171 113.26 93.7603 112.506 92.4788 111.601Z" fill="black"/>
	<path d="M188.363 83.1831L182.634 84.3892C182.483 92.0026 182.182 97.5053 182.182 97.5053H173.513C173.513 97.5053 172.307 93.1333 173.588 80.9217C174.041 77.0019 176.377 72.4037 175.925 69.1624C175.096 63.2074 173.136 58.4584 171.251 55.594C167.709 52.428 161.301 56.9508 161 57.177L161.678 55.594C159.794 56.8 158.437 58.0061 158.437 58.0061C158.437 58.0061 157.608 56.2724 156.025 54.011C156.1 54.7648 156.175 55.5186 156.1 56.1216C156.1 56.1216 154.969 54.1617 153.085 51.9757C153.839 54.3879 153.613 56.4232 153.613 56.4232C147.054 46.9253 141.401 48.2821 138.536 50.0158C130.395 59.2122 129.943 83.1831 129.943 83.1831L121.802 82.3539C121.802 82.3539 121.727 79.6402 121.953 75.4189C120.219 87.1029 119.918 97.5053 119.918 97.5053L104.691 96.3746L104.012 93.2087C104.012 93.2087 101.676 81.9016 90.6701 83.2585C86.5242 83.7861 83.509 88.4597 83.2828 94.0378L81.3983 93.8871C81.3983 93.8871 81.3983 87.7059 81.3983 87.329C81.3983 86.9521 79.3631 93.284 79.3631 93.284L73.2573 92.7564L69.4883 91.7011C69.4883 91.7011 73.3327 45.8699 87.7303 34.2614C95.8713 27.7033 101.676 27.1003 101.676 27.1003C104.314 24.3866 109.817 19.5623 116.676 19.0346C126.4 18.2808 172.91 29.9647 178.714 42.0255C178.94 42.4778 179.166 43.0055 179.317 43.5331C181.352 48.2067 186.554 62.8305 188.363 83.1831Z" fill="black"/>
	<path d="M135.398 98.9386C133.589 98.8632 132.232 97.3556 132.383 95.5465L132.458 93.4358C132.533 91.6267 134.041 90.2699 135.85 90.4206C137.659 90.496 139.016 92.0036 138.865 93.8127L138.79 95.9234C138.714 97.6571 137.207 99.014 135.398 98.9386Z" fill="black"/>
	<path d="M167.133 100.069C165.475 99.994 164.193 98.5618 164.269 96.9034L164.344 94.9435C164.42 93.2852 165.852 92.0037 167.51 92.0791C169.168 92.1545 170.45 93.5867 170.375 95.2451L170.299 97.2049C170.224 98.8633 168.792 100.145 167.133 100.069Z" fill="black"/>
	<path d="M142.182 94.868C139.694 93.2097 136.98 92.079 133.965 92.682C132.985 92.8328 132.005 93.1343 131.402 93.8127C131.176 94.1142 130.648 94.0388 130.648 93.5866C130.724 92.079 132.005 91.099 133.211 90.496C135.548 89.2899 138.789 89.516 140.9 91.099C141.654 91.5513 144.217 94.3404 142.86 94.9434C142.558 95.0942 142.408 95.0188 142.182 94.868Z" fill="black"/>
	<path d="M163.74 95.2452C163.74 92.0792 167.66 90.9485 170.072 92.0792C171.429 92.6823 172.409 93.8883 172.786 95.3206C172.937 95.7728 172.258 96.1497 171.957 95.7728C170.675 94.2652 168.489 93.5114 166.755 94.416C166.228 94.7175 166.152 94.9437 166.002 95.2452C166.002 96.7528 163.816 96.6774 163.74 95.2452Z" fill="black"/>
	<path d="M145.8 82.4304C147.383 82.9581 148.966 81.5258 148.665 79.7921C148.514 78.8875 148.137 77.983 147.383 77.3046C145.122 75.2693 135.775 73.4602 130.121 76.0985C125.146 78.5106 138.564 80.0182 145.8 82.4304Z" fill="black"/>
	<path d="M168.339 83.6365C167.058 84.0888 165.701 82.732 165.927 81.149C166.003 80.3198 166.304 79.4906 166.907 78.8876C168.716 77.0785 174.897 75.6463 178.817 78.4353C182.209 80.7721 174.219 81.4505 168.339 83.6365Z" fill="black"/>
	<path d="M157.526 127.25C152.701 131.848 143.58 128.155 141.168 122.577C140.867 121.898 141.621 121.295 142.224 121.597C143.505 122.275 144.636 122.953 145.842 123.481C149.309 125.064 152.928 126.346 156.772 125.969C157.526 125.818 158.053 126.722 157.526 127.25Z" fill="black"/>
	<rect x="2" y="2" width="236" height="236" rx="8" fill="#7E7D7D" fill-opacity="0.7" stroke="black" stroke-width="4"/>
	<path d="M105.041 135.819L107.413 136.61L105.041 135.819ZM106.944 130.112L104.572 129.321H104.572L106.944 130.112ZM108.907 126.935L110.675 128.703L110.675 128.703L108.907 126.935ZM127.867 107.975L126.099 106.207L126.099 106.207L127.867 107.975ZM138.025 118.133L139.793 119.901V119.901L138.025 118.133ZM119.065 137.093L117.297 135.325L117.297 135.325L119.065 137.093ZM115.888 139.056L116.679 141.428H116.679L115.888 139.056ZM110.181 140.959L110.971 143.331H110.971L110.181 140.959ZM118.024 138.065L116.518 136.069L116.518 136.069L118.024 138.065ZM117.223 138.56L116.112 136.32L117.223 138.56ZM140.472 110.799L138.232 111.909V111.909L140.472 110.799ZM140.472 115.31L138.232 114.199V114.199L140.472 115.31ZM130.69 105.528L131.801 107.768L131.801 107.768L130.69 105.528ZM135.201 105.528L134.091 107.768L134.091 107.768L135.201 105.528ZM107.44 128.777L109.68 129.888L109.68 129.888L107.44 128.777ZM107.935 127.976L105.939 126.471L105.939 126.471L107.935 127.976ZM104.095 140.366L101.74 141.206L104.095 140.366ZM105.634 141.905L104.794 144.26H104.794L105.634 141.905ZM127.095 108.747C126.118 107.771 124.536 107.771 123.559 108.747C122.583 109.723 122.583 111.306 123.559 112.283L127.095 108.747ZM133.717 122.441C134.694 123.417 136.277 123.417 137.253 122.441C138.229 121.464 138.229 119.882 137.253 118.905L133.717 122.441ZM107.413 136.61L109.315 130.902L104.572 129.321L102.669 135.029L107.413 136.61ZM110.675 128.703L129.634 109.743L126.099 106.207L107.139 125.167L110.675 128.703ZM136.257 116.366L117.297 135.325L120.833 138.861L139.793 119.901L136.257 116.366ZM115.098 136.685L109.39 138.587L110.971 143.331L116.679 141.428L115.098 136.685ZM117.297 135.325C116.744 135.879 116.63 135.985 116.518 136.069L119.529 140.061C119.982 139.719 120.374 139.32 120.833 138.861L117.297 135.325ZM116.679 141.428C117.294 141.223 117.827 141.051 118.335 140.799L116.112 136.32C115.986 136.383 115.84 136.437 115.098 136.685L116.679 141.428ZM116.518 136.069C116.391 136.165 116.255 136.25 116.112 136.32L118.335 140.799C118.755 140.59 119.155 140.343 119.529 140.061L116.518 136.069ZM136.257 109.743C137.784 111.27 138.09 111.623 138.232 111.909L142.712 109.689C142.114 108.482 141.034 107.449 139.793 106.207L136.257 109.743ZM139.793 119.901C141.034 118.659 142.114 117.627 142.712 116.42L138.232 114.199C138.09 114.486 137.784 114.838 136.257 116.366L139.793 119.901ZM138.232 111.909C138.589 112.631 138.589 113.478 138.232 114.199L142.712 116.42C143.763 114.299 143.763 111.81 142.712 109.689L138.232 111.909ZM129.634 109.743C131.162 108.216 131.514 107.91 131.801 107.768L129.58 103.288C128.373 103.886 127.341 104.966 126.099 106.207L129.634 109.743ZM139.793 106.207C138.551 104.966 137.518 103.886 136.311 103.288L134.091 107.768C134.377 107.91 134.73 108.216 136.257 109.743L139.793 106.207ZM131.801 107.768C132.522 107.411 133.369 107.411 134.091 107.768L136.311 103.288C134.19 102.237 131.701 102.237 129.58 103.288L131.801 107.768ZM109.315 130.902C109.563 130.16 109.617 130.014 109.68 129.888L105.201 127.665C104.949 128.173 104.777 128.706 104.572 129.321L109.315 130.902ZM107.139 125.167C106.68 125.626 106.281 126.017 105.939 126.471L109.931 129.482C110.015 129.37 110.121 129.256 110.675 128.703L107.139 125.167ZM109.68 129.888C109.75 129.745 109.835 129.609 109.931 129.482L105.939 126.471C105.657 126.845 105.41 127.245 105.201 127.665L109.68 129.888ZM102.669 135.029C102.272 136.222 101.916 137.281 101.714 138.142C101.52 138.966 101.339 140.082 101.74 141.206L106.449 139.527C106.556 139.825 106.435 139.909 106.581 139.286C106.719 138.7 106.983 137.898 107.413 136.61L102.669 135.029ZM109.39 138.587C108.102 139.017 107.3 139.281 106.714 139.419C106.091 139.565 106.175 139.444 106.473 139.551L104.794 144.26C105.918 144.661 107.034 144.48 107.858 144.286C108.719 144.084 109.778 143.728 110.971 143.331L109.39 138.587ZM101.74 141.206C102.248 142.631 103.369 143.752 104.794 144.26L106.473 139.551C106.462 139.547 106.453 139.538 106.449 139.527L101.74 141.206ZM123.559 112.283L133.717 122.441L137.253 118.905L127.095 108.747L123.559 112.283Z" fill="white"/>
	</svg>
	